HIERARCHY
ROOT Hips
{
	OFFSET 0.000000 0.000000 0.000000 
	CHANNELS 6 Xposition Yposition Zposition Zrotation Yrotation Xrotation
	JOINT LeftUpLeg
	{
		OFFSET 1.363060 -1.794630 0.839290 
		CHANNELS 3 Zrotation Yrotation Xrotation
		JOINT LeftLeg
		{
			OFFSET 2.448110 -6.726130 0.000000 
			CHANNELS 3 Zrotation Yrotation Xrotation
			JOINT LeftFoot
			{
				OFFSET 2.562200 -7.039590 0.000000 
				CHANNELS 3 Zrotation Yrotation Xrotation
				JOINT LeftToeBase
				{
					OFFSET 0.157640 -0.433110 2.322550 
					CHANNELS 3 Zrotation Yrotation Xrotation
					End Site
					{
						OFFSET 0.000000 0.000000 0.000000 
					}
				}
			}
		}
	}
	JOINT RightUpLeg
	{
		OFFSET -1.305520 -1.794630 0.839290 
		CHANNELS 3 Zrotation Yrotation Xrotation
		JOINT RightLeg
		{
			OFFSET -2.542530 -6.985550 0.000000 
			CHANNELS 3 Zrotation Yrotation Xrotation
			JOINT RightFoot
			{
				OFFSET -2.568260 -7.056230 0.000000 
				CHANNELS 3 Zrotation Yrotation Xrotation
				JOINT RightToeBase
				{
					OFFSET -0.164730 -0.452590 2.363150 
					CHANNELS 3 Zrotation Yrotation Xrotation
					End Site
					{
						OFFSET 0.000000 0.000000 0.000000 
					}
				}
			}
		}
	}
	JOINT Spine
	{
		OFFSET 0.028270 2.035590 -0.193380 
		CHANNELS 3 Zrotation Yrotation Xrotation
		JOINT Spine1
		{
			OFFSET 0.056720 2.048850 -0.042750 
			CHANNELS 3 Zrotation Yrotation Xrotation
			JOINT Neck1
			{
				OFFSET -0.054170 1.746240 0.172020 
				CHANNELS 3 Zrotation Yrotation Xrotation
				JOINT Head
				{
					OFFSET 0.104070 1.761360 -0.123970 
					CHANNELS 3 Zrotation Yrotation Xrotation
					End Site
					{
						OFFSET 0.000000 0.000000 0.000000 
					}
				}
			}
			JOINT LeftArm
			{
				OFFSET 3.362410 1.200890 -0.311210 
				CHANNELS 3 Zrotation Yrotation Xrotation
				JOINT LeftForeArm
				{
					OFFSET 4.983000 -0.000000 -0.000000 
					CHANNELS 3 Zrotation Yrotation Xrotation
					JOINT LeftHand
					{
						OFFSET 3.483560 -0.000000 -0.000000 
						CHANNELS 3 Zrotation Yrotation Xrotation
						JOINT LeftHandIndex1
						{
							OFFSET 0.715260 -0.000000 -0.000000 
							CHANNELS 3 Zrotation Yrotation Xrotation
							End Site
							{
								OFFSET 0.000000 0.000000 0.000000 
							}
						}
					}
				}
			}
			JOINT RightArm
			{
				OFFSET -3.136600 1.374050 -0.404650 
				CHANNELS 3 Zrotation Yrotation Xrotation
				JOINT RightForeArm
				{
					OFFSET -5.241900 -0.000000 -0.000000 
					CHANNELS 3 Zrotation Yrotation Xrotation
					JOINT RightHand
					{
						OFFSET -3.444170 -0.000000 -0.000000 
						CHANNELS 3 Zrotation Yrotation Xrotation
						JOINT RightHandIndex1
						{
							OFFSET -0.622530 -0.000000 -0.000000 
							CHANNELS 3 Zrotation Yrotation Xrotation
							End Site
							{
								OFFSET 0.000000 0.000000 0.000000 
							}
						}
					}
				}
			}
		}
	}
}
MOTION
Frames: 15
Frame Time: 0.041667
0.047285 29.398117 -6.085578 0.731047 -31.134771 6.199803 -13.795854 -16.851650 -15.165715 -0.675470 6.086328 20.585886 2.091563 -27.943052 17.003754 0.092900 1.965300 5.409800 9.648328 17.535362 -15.287555 -1.360106 -9.124744 28.681819 -2.127118 14.561567 9.822426 -0.499700 -4.532000 12.578300 0.562449 1.530547 -0.220109 2.914821 1.242983 0.025051 0.367684 9.556256 34.667748 2.884900 1.851700 17.397500 -73.856306 1.301847 15.866617 14.137215 -26.462012 -4.119761 -0.001006 -1.846006 3.972940 -7.125000 0.000000 0.000000 72.131438 -3.746240 20.659780 -19.857848 27.850180 -6.086454 0.624324 -0.414777 18.526988 7.125000 0.000000 0.000000 
0.003738 29.397410 -6.094166 0.772903 -30.384385 6.144032 -13.699463 -17.064743 -15.062225 -0.693477 6.056419 20.525427 2.039275 -28.246974 17.527926 0.110800 2.145700 5.908600 9.875945 17.232362 -15.029729 -1.343115 -9.083588 28.528845 -2.114858 14.084777 8.915822 -0.463700 -4.368000 12.114400 0.619540 1.492625 -0.347149 3.023129 1.234901 -0.199511 0.327048 9.702519 34.682733 2.892200 1.895300 17.236300 -74.060766 1.803038 15.510657 14.215660 -26.585546 -4.166066 0.011313 -1.844308 4.174418 -7.125000 0.000000 0.000000 72.086637 -4.226811 20.733928 -19.816679 27.824547 -6.068029 0.616782 -0.405839 18.492728 7.125000 0.000000 0.000000 
-0.036879 29.396197 -6.101138 0.849222 -29.542382 6.075401 -13.650501 -17.324736 -14.959880 -0.708340 6.025610 20.460903 1.972054 -28.648329 17.958363 0.117100 2.206500 6.076600 10.070516 16.828160 -14.798213 -1.318824 -9.036228 28.350535 -2.100033 13.588295 8.099875 -0.501000 -4.537700 12.594600 0.607597 1.449412 -0.424883 2.966397 1.220973 -0.338621 0.476849 9.681595 34.715409 2.959500 1.907900 17.185600 -74.080089 2.085230 15.351681 14.198528 -26.574640 -4.160697 0.014422 -1.845433 4.080621 -7.125000 0.000000 0.000000 72.183004 -4.499670 20.748620 -19.729425 27.736620 -6.023143 0.609910 -0.411941 18.401889 7.125000 0.000000 0.000000 
-0.074060 29.392257 -6.107301 0.903771 -28.617635 6.128468 -13.556837 -17.705307 -14.929765 -0.732022 5.976419 20.348675 1.913460 -28.954356 18.494578 0.132600 2.347400 6.466700 10.256696 16.295920 -14.722104 -1.290808 -8.990817 28.178243 -2.088567 13.224171 7.543875 -0.585900 -4.901200 13.626900 0.610256 1.340635 -0.468589 2.905214 1.173664 -0.369398 0.225906 9.795790 34.689601 2.837500 1.948000 17.142100 -74.067367 2.194858 15.283552 14.054549 -26.388450 -4.092236 -0.022295 -1.823949 3.857469 -7.125000 0.000000 0.000000 72.276743 -4.617579 20.711282 -19.700916 27.705673 -6.007434 0.609902 -0.410437 18.404603 7.125000 0.000000 0.000000 
-0.112455 29.392257 -6.115687 0.946694 -27.790756 6.268865 -13.410739 -18.045227 -14.979186 -0.767233 5.909551 20.182299 1.879296 -29.104297 19.121822 0.165000 2.617000 7.214100 10.445828 15.854472 -14.726136 -1.270025 -8.954302 28.038046 -2.077147 12.890733 6.967813 -0.638000 -5.110200 14.223200 0.603951 1.301384 -0.499999 2.844952 1.157276 -0.343493 0.217621 9.791763 34.621302 2.837100 1.957200 17.123500 -73.976858 2.182755 15.210305 13.920516 -26.211415 -4.029301 -0.045505 -1.807103 3.875284 -7.125000 0.000000 0.000000 72.374677 -4.705229 20.589049 -19.685599 27.688830 -5.998702 0.610441 -0.404232 18.396756 7.125000 0.000000 0.000000 
-0.150344 29.391651 -6.124477 1.154038 -27.019307 6.327783 -13.449912 -18.322691 -15.002264 -0.810920 5.823462 19.982311 1.832486 -29.254133 19.961117 0.218000 3.005700 8.294600 10.502645 15.243663 -14.828851 -1.256583 -8.937711 27.934115 -2.077258 12.594644 6.300078 -0.602900 -4.970500 13.824500 0.501647 1.427204 -0.500922 2.661627 1.220303 -0.293403 0.305932 9.611913 34.531783 2.860900 1.912800 17.092000 -73.799546 2.016151 15.434106 13.831335 -26.085313 -3.978967 -0.066751 -1.808077 3.844086 -7.125000 0.000000 0.000000 72.612550 -4.705867 20.117049 -19.604802 27.594703 -5.958372 0.601354 -0.421638 18.437731 7.125000 0.000000 0.000000 
-0.185100 29.387003 -6.135894 1.619077 -26.329041 6.287002 -13.758998 -18.643770 -14.973723 -0.846587 5.735764 19.788799 1.764315 -29.467303 20.651668 0.260300 3.282600 9.066600 10.302602 14.483738 -15.026079 -1.245371 -8.935335 27.837799 -2.095090 12.342237 5.545448 -0.485500 -4.467700 12.396400 0.405008 1.591770 -0.472451 2.655654 1.295472 -0.160998 0.381462 9.547959 34.588593 2.904300 1.892400 17.168300 -73.853507 1.775421 15.513676 13.713053 -25.908022 -3.912378 -0.109031 -1.792445 3.906019 -7.125000 0.000000 0.000000 72.694241 -4.648397 19.779937 -19.557966 27.535226 -5.932995 0.612735 -0.419301 18.458934 7.125000 0.000000 0.000000 
-0.220665 29.386700 -6.150040 1.903335 -25.756649 6.322162 -13.872676 -18.842279 -14.994669 -0.885401 5.648032 19.570121 1.712507 -29.686918 21.223543 0.288900 3.456600 9.552600 10.248134 13.953301 -15.152282 -1.235332 -8.924440 27.746024 -2.100552 12.069021 4.862732 -0.448000 -4.294400 11.906300 0.344465 1.750485 -0.473498 2.619584 1.369494 -0.110293 0.719093 9.438286 34.696636 3.138100 1.816800 17.304100 -73.905096 1.673743 15.407055 13.680635 -25.851777 -3.888476 -0.090192 -1.814675 4.209612 -7.125000 0.000000 0.000000 72.761200 -4.674547 19.628851 -19.569164 27.541632 -5.935228 0.627020 -0.395048 18.302687 7.125000 0.000000 0.000000 
-0.259666 29.397915 -6.169641 1.810338 -26.091858 6.898443 -13.505506 -18.466370 -15.579981 -0.925969 5.584670 19.332318 1.726779 -29.773339 21.323994 0.258700 3.272600 9.038500 10.345094 14.213293 -15.608970 -1.210374 -8.882206 27.610831 -2.092836 12.006764 4.779008 -0.483600 -4.459500 12.373000 0.304429 2.259477 -0.505386 2.534877 1.626637 0.111818 0.615857 9.464219 34.832649 3.084900 1.825800 17.548600 -73.869278 1.468891 15.178630 13.698805 -25.859243 -3.880034 -0.031947 -1.879009 4.432255 -7.125000 0.000000 0.000000 72.914897 -4.454069 19.396353 -19.473519 27.421224 -5.881675 0.621609 -0.398930 18.350523 7.125000 0.000000 0.000000 
-0.302001 29.407412 -6.186615 1.754812 -25.846949 7.099034 -13.248219 -18.259127 -15.789714 -0.957038 5.533597 19.160002 1.654803 -30.299211 21.642779 0.227300 3.068600 8.469800 10.537037 14.471093 -15.533020 -1.189677 -8.833809 27.468578 -2.064886 11.665551 4.317761 -0.518300 -4.614100 12.811000 0.313164 2.457903 -0.464143 2.533166 1.727547 0.267408 0.311072 9.613429 35.093189 2.915300 1.878400 17.889200 -73.957873 1.273928 14.592539 13.653811 -25.777153 -3.850261 -0.011195 -1.898780 4.865720 -7.125000 0.000000 0.000000 72.935423 -4.188469 19.343851 -19.316611 27.237064 -5.799589 0.609147 -0.426153 18.571918 7.125000 0.000000 0.000000 
-0.349387 29.411858 -6.203084 1.680799 -25.308218 7.031884 -12.967396 -18.179347 -15.758798 -0.995280 5.484496 19.027695 1.574928 -30.804378 22.537468 0.260800 3.285500 9.074500 10.882398 14.812454 -15.043646 -1.178929 -8.783609 27.342519 -2.010577 11.009318 3.385224 -0.480400 -4.444800 12.331600 0.299801 2.623373 -0.481190 2.381072 1.815369 0.049435 0.398636 9.545374 35.237326 2.952300 1.856300 18.074500 -73.904484 1.364349 14.364355 13.629590 -25.748154 -3.843398 -0.019548 -1.888724 5.279611 -7.125000 0.000000 0.000000 72.669280 -5.750196 20.353871 -20.218990 28.330030 -6.297746 0.619897 -0.367981 17.262344 7.125000 0.000000 0.000000 
-0.392025 29.410646 -6.219957 1.598758 -24.810024 7.061356 -12.642395 -18.310173 -15.739233 -1.038099 5.423941 18.880824 1.581593 -30.840152 23.516710 0.327100 3.676000 10.166900 11.193774 15.114439 -14.705431 -1.166926 -8.741673 27.232363 -1.953716 10.419116 2.669109 -0.456800 -4.335900 12.023700 0.291147 2.855056 -0.429636 2.313755 1.936903 0.028372 0.475866 9.407950 35.174012 2.994200 1.810800 18.137200 -73.908430 1.204172 14.338873 13.581031 -25.668323 -3.822982 -0.037758 -1.863068 5.451088 -7.125000 0.000000 0.000000 73.193451 -4.063970 18.977970 -19.206728 27.082110 -5.732051 0.635473 -0.405929 18.629542 7.125000 0.000000 0.000000 
-0.429409 29.410140 -6.237134 1.581987 -24.312616 7.175225 -12.387328 -18.536107 -15.768969 -1.071298 5.369309 18.743447 1.603289 -30.788189 24.196210 0.390200 4.011000 11.107700 11.382048 15.243998 -14.591791 -1.158448 -8.718266 27.163753 -1.914207 10.026708 2.230327 -0.471700 -4.404700 12.218200 0.288892 2.992427 -0.266559 2.261900 1.995835 0.389535 0.394491 9.349145 34.941613 2.949500 1.808200 18.110800 -73.933221 0.684485 14.022530 13.481049 -25.501445 -3.772331 -0.030007 -1.858331 5.570165 -7.125000 0.000000 0.000000 73.181742 -3.681769 19.125425 -19.263837 27.126418 -5.752315 0.655905 -0.372146 18.434489 7.125000 0.000000 0.000000 
-0.466186 29.412565 -6.256836 1.546354 -23.803795 7.244533 -12.162108 -18.586251 -15.827757 -1.104851 5.312489 18.590517 1.583911 -30.973242 24.818291 0.424300 4.180800 11.585800 11.595655 15.373167 -14.467729 -1.162334 -8.712325 27.160544 -1.866709 9.618324 1.852260 -0.474300 -4.416800 12.252500 0.212497 3.127258 -0.287925 2.001835 2.071580 0.263830 0.480915 9.203992 34.923872 2.974100 1.770800 18.159000 -73.733897 0.653672 13.894388 13.461800 -25.469052 -3.754397 0.004982 -1.895734 5.720706 -7.125000 0.000000 0.000000 73.432846 -3.665369 19.027302 -19.253661 27.101448 -5.741873 0.657394 -0.364775 18.513152 7.125000 0.000000 0.000000 
-0.504277 29.411757 -6.279064 1.590600 -23.355127 7.320505 -12.005600 -18.529470 -15.944351 -1.138882 5.248148 18.404776 1.547961 -31.232829 25.276059 0.427400 4.195600 11.627600 11.726576 15.592672 -14.413957 -1.176308 -8.725654 27.206764 -1.810132 9.127986 1.396960 -0.424900 -4.183600 11.593900 0.193905 3.186631 -0.266915 1.952530 2.103580 0.258908 0.475604 9.213832 34.824146 2.980200 1.783100 18.170800 -73.714394 0.582982 13.694179 13.487782 -25.494542 -3.754801 0.023425 -1.928735 5.844508 -7.125000 0.000000 0.000000 73.441351 -3.353810 19.068346 -19.093290 26.906823 -5.655526 0.646076 -0.381958 18.641332 7.125000 0.000000 0.000000 
